<?xml version="1.0" standalone="no"?>
<!DOCTYPE svg PUBLIC "-//W3C//DTD SVG 20010904//EN"
 "http://www.w3.org/TR/2001/REC-SVG-20010904/DTD/svg10.dtd">
<svg version="1.0" xmlns="http://www.w3.org/2000/svg"
 width="533.000000pt" height="372.000000pt" viewBox="0 0 533.000000 372.000000"
 preserveAspectRatio="xMidYMid meet">

<g transform="translate(0.000000,372.000000) scale(0.100000,-0.100000)"
fill="#000000" stroke="none">
<path d="M0 1860 l0 -1860 2665 0 2665 0 0 1860 0 1860 -2665 0 -2665 0 0
-1860z m1784 1280 c95 -32 172 -79 229 -139 29 -31 58 -64 63 -74 10 -17 15
-16 100 12 249 84 568 85 799 4 102 -36 105 -36 105 -25 0 20 120 140 166 167
40 24 174 75 195 75 5 0 19 -33 31 -72 42 -138 25 -270 -51 -390 -38 -60 -99
-107 -112 -87 -14 22 -11 1 5 -29 37 -74 125 -420 140 -552 15 -124 -30 -235
-143 -352 -162 -170 -441 -312 -663 -336 -148 -16 -291 14 -462 99 -134 67
-257 149 -339 228 -149 143 -177 268 -113 508 14 51 30 127 35 168 12 84 40
174 77 248 14 27 23 51 21 54 -3 2 -8 -5 -12 -16 -3 -12 -12 -21 -19 -21 -26
0 -98 83 -129 148 -30 63 -32 74 -32 177 1 90 5 120 24 168 12 31 24 57 25 57
2 0 28 -9 60 -20z m1793 -542 c242 -286 392 -641 469 -1108 22 -133 25 -431 5
-540 -39 -215 -205 -551 -267 -542 -10 1 -64 3 -119 4 -78 0 -113 -4 -157 -20
l-58 -20 0 36 c0 64 28 169 68 265 44 101 92 248 91 275 0 9 -13 -21 -29 -68
-60 -179 -159 -376 -266 -527 -24 -34 -44 -66 -44 -70 0 -5 17 -22 38 -38 36
-27 101 -105 87 -105 -3 0 -41 18 -85 40 -44 22 -83 40 -87 40 -4 0 5 -12 19
-28 30 -31 62 -91 54 -99 -3 -3 -23 5 -44 19 -21 14 -62 38 -91 53 -46 23 -53
24 -46 8 5 -10 10 -38 13 -62 l4 -44 -33 32 c-42 39 -140 89 -191 97 -21 4
-38 9 -38 12 0 3 10 16 21 28 l22 23 -31 94 c-35 105 -57 227 -67 364 -7 106
-19 93 111 132 69 21 274 115 274 126 0 3 -21 -5 -47 -19 -76 -38 -185 -74
-296 -98 -83 -18 -135 -22 -282 -22 -198 0 -284 12 -428 62 -45 16 -91 32
-102 35 -11 4 12 -8 50 -27 39 -19 114 -49 168 -67 72 -23 97 -35 97 -48 0
-36 -30 -250 -44 -316 -8 -39 -26 -105 -39 -147 -24 -75 -24 -77 -6 -94 27
-25 24 -31 -20 -39 -51 -8 -147 -54 -190 -91 l-34 -29 5 40 c3 22 9 48 13 59
8 17 7 17 -26 1 -19 -10 -60 -36 -92 -57 -32 -22 -61 -38 -63 -35 -8 8 25 80
48 104 39 42 -30 18 -100 -34 -18 -14 -35 -23 -38 -21 -7 7 51 91 84 123 18
16 32 34 32 38 0 5 -29 55 -64 110 -132 212 -236 431 -280 593 -32 116 -33 87
-1 -37 28 -113 73 -229 119 -314 31 -56 34 -68 39 -178 3 -65 2 -117 -1 -115
-78 42 -112 52 -177 53 -38 0 -90 -4 -116 -8 l-45 -9 -35 54 c-186 281 -252
556 -220 918 40 466 187 881 408 1158 49 61 174 192 183 192 3 0 13 -13 23
-29 9 -16 33 -45 52 -64 19 -19 35 -38 35 -41 0 -16 -76 -126 -119 -170 -48
-51 -44 -52 27 -4 23 16 42 25 42 20 0 -13 -59 -103 -104 -157 -42 -51 -40
-51 32 -3 23 16 42 26 42 22 0 -19 -78 -150 -122 -205 -44 -54 -47 -61 -22
-45 16 10 42 30 58 45 25 22 28 23 22 6 -14 -38 -66 -229 -66 -239 1 -6 14 13
29 43 l28 54 6 -114 c6 -117 30 -231 61 -284 10 -17 15 -22 12 -10 -3 11 -8
43 -11 70 -3 28 -8 61 -11 75 -3 14 20 -24 50 -85 50 -98 120 -203 138 -205 3
0 -2 21 -12 48 -9 26 -20 63 -24 82 -6 33 -4 31 25 -20 45 -78 85 -126 142
-171 57 -45 82 -52 45 -12 -14 16 -34 41 -44 58 l-19 30 40 -32 c49 -38 112
-71 228 -117 128 -51 202 -107 284 -215 2 -3 24 18 49 47 62 71 113 104 266
173 71 32 159 80 195 105 70 50 72 46 15 -25 -31 -38 -32 -42 -11 -31 52 28
99 73 145 141 27 39 50 67 51 62 2 -5 -3 -33 -11 -63 l-14 -55 35 40 c44 50
88 129 113 197 l19 53 1 -75 c1 -69 2 -73 15 -50 33 61 58 168 64 269 l6 105
33 -59 c30 -54 32 -56 27 -25 -9 51 -45 158 -71 213 -25 53 -19 60 17 21 13
-14 37 -35 53 -47 28 -20 27 -18 -10 34 -42 56 -134 205 -134 216 0 3 6 1 13
-4 6 -5 39 -25 72 -43 l60 -33 -41 44 c-53 57 -114 134 -114 144 0 4 11 0 25
-9 78 -50 81 -51 39 -5 -44 47 -90 113 -118 166 l-16 32 44 41 c24 22 49 54
56 70 l12 30 28 -20 c15 -11 59 -57 97 -102z m-1953 -2238 c50 -19 126 -84
126 -109 0 -5 -27 -11 -60 -15 -52 -6 -133 -24 -195 -43 -17 -5 -16 -2 7 29
l27 35 -90 -32 c-91 -33 -107 -30 -67 13 l23 23 -70 -25 c-38 -14 -71 -23 -74
-20 -2 2 8 17 24 34 l28 29 -64 -19 c-34 -11 -65 -18 -67 -15 -5 5 76 63 115
82 117 55 244 67 337 33z m2161 5 c71 -19 144 -57 181 -96 l27 -28 -52 19
c-75 29 -87 27 -61 -11 12 -16 20 -32 18 -34 -2 -3 -31 6 -63 20 -33 13 -61
22 -63 20 -2 -2 4 -15 14 -29 23 -37 12 -42 -38 -18 -24 12 -56 24 -73 28 -25
5 -28 4 -17 -7 6 -7 12 -21 12 -30 0 -16 -6 -15 -55 7 -36 17 -81 28 -130 31
-41 3 -75 9 -75 13 0 15 42 59 76 81 80 49 191 62 299 34z"/>
<path d="M3285 3044 c-56 -37 -102 -81 -137 -132 l-29 -42 54 -61 c30 -33 69
-87 86 -119 18 -33 34 -60 37 -60 2 0 -2 13 -10 29 -17 32 -10 47 46 107 l30
32 -42 7 -42 7 34 30 33 29 -47 -4 c-51 -5 -52 -1 -15 41 l20 22 -30 0 c-17 0
-36 -7 -43 -15 -7 -8 -17 -15 -22 -15 -18 0 37 82 84 126 54 50 51 56 -7 18z"/>
<path d="M1877 3018 c36 -40 73 -96 73 -113 0 -3 -13 1 -30 10 -44 23 -53 19
-35 -15 8 -16 15 -31 15 -34 0 -2 -19 -2 -42 1 l-43 6 28 -30 c24 -26 26 -31
12 -37 -9 -3 -25 -6 -36 -6 -10 0 -19 -4 -19 -10 0 -5 4 -10 10 -10 15 0 72
-90 66 -106 -11 -30 3 -12 32 39 16 28 50 75 76 103 25 29 46 60 46 69 0 22
-115 137 -160 160 l-35 18 42 -45z"/>
<path d="M2139 2334 c-35 -37 -33 -98 4 -130 34 -29 56 -30 91 -3 21 17 26 29
26 68 0 84 -68 121 -121 65z m96 -34 c0 -8 -8 -16 -17 -18 -13 -2 -18 3 -18
18 0 15 5 20 18 18 9 -2 17 -10 17 -18z"/>
<path d="M2916 2329 c-31 -37 -33 -77 -6 -112 26 -33 53 -41 82 -26 35 19 47
40 48 82 0 27 -7 45 -25 62 -33 34 -67 32 -99 -6z m94 -30 c0 -10 -7 -19 -15
-19 -15 0 -21 31 -9 43 11 10 24 -3 24 -24z"/>
<path d="M2505 1986 c-40 -15 -89 -62 -114 -109 -11 -21 -10 -33 9 -85 26 -72
55 -106 81 -98 63 20 65 20 48 2 -19 -21 -72 -24 -94 -6 -18 15 -44 62 -56
100 -6 22 -7 21 -8 -11 -2 -62 11 -99 44 -134 25 -27 42 -35 83 -41 84 -11 83
-29 -1 -30 -40 0 -101 -2 -137 -4 -56 -3 -61 -5 -35 -12 17 -5 51 -6 77 -3 40
5 49 3 58 -15 36 -67 204 -67 241 1 9 18 17 20 52 15 23 -3 56 -2 72 2 24 7 8
10 -72 16 -56 4 -114 4 -130 0 -25 -6 -26 -5 -15 8 7 9 32 19 57 22 78 12 126
71 124 153 l-1 38 -15 -35 c-23 -53 -52 -80 -87 -80 -34 0 -64 15 -53 26 4 4
18 2 31 -5 33 -18 59 -2 84 52 38 80 38 108 0 157 -18 24 -45 52 -59 62 -35
26 -131 33 -184 14z"/>
<path d="M3615 1020 c-4 -23 -5 -43 -2 -46 2 -3 7 14 11 37 4 23 5 44 2 46 -2
2 -7 -14 -11 -37z"/>
</g>
</svg>
